<svg width="114" height="28" viewBox="0 0 114 28" fill="none" xmlns="http://www.w3.org/2000/svg">
<path id="Vector" fill-rule="evenodd" clip-rule="evenodd" d="M6.2636 1.92317C7.37042 1.92317 8.28464 2.08269 9.00708 2.40093C9.72953 2.72082 10.3627 3.05808 10.9066 3.41517V6.03218C10.3817 5.63789 9.74358 5.26758 8.99303 4.92041C8.24331 4.57324 7.42662 4.39965 6.54464 4.39965C5.98256 4.39965 5.39567 4.49801 4.78564 4.69557C4.17644 4.8923 3.66477 5.20641 3.2523 5.63789C2.839 6.0702 2.63318 6.6232 2.63318 7.29771C2.63318 8.04826 2.90513 8.62109 3.44986 9.01455C3.99294 9.40884 4.65008 9.78411 5.41964 10.1404L8.00855 11.3224C9.303 11.9035 10.2784 12.5507 10.9347 13.2641C11.5919 13.9775 11.92 14.9247 11.92 16.1059C11.92 17.1384 11.6191 18.0435 11.019 18.8213C10.4189 19.6008 9.63116 20.215 8.65578 20.6655C7.67956 21.116 6.61077 21.3408 5.44775 21.3408C4.35912 21.3408 3.3548 21.1531 2.43645 20.7779C1.51644 20.4026 0.719607 19.981 0.0442758 19.5115V16.8937C0.775815 17.4012 1.61481 17.8559 2.56292 18.2592C3.5102 18.6626 4.58395 18.8643 5.785 18.8643C6.72319 18.8643 7.54814 18.6295 8.26149 18.1609C8.97402 17.6922 9.33111 17.045 9.33111 16.2192C9.33111 15.7505 9.18563 15.3463 8.89466 15.009C8.6037 14.671 8.25157 14.38 7.8391 14.1362C7.42662 13.8923 7.02325 13.6857 6.62896 13.517L3.50607 12.1102C2.15458 11.51 1.2354 10.8066 0.747709 9.99986C0.260016 9.1931 0.0161743 8.26482 0.0161743 7.21339C0.0161743 6.21899 0.302173 5.32378 0.874179 4.52611C1.44618 3.72927 2.21162 3.09611 3.16799 2.6266C4.12519 2.15792 5.15679 1.92317 6.2636 1.92317ZM22.8666 6.70668C24.0859 6.70668 25.1886 7.00261 26.1739 7.59445C27.1584 8.18464 27.9469 9.01041 28.5379 10.0701C29.129 11.1306 29.4241 12.3738 29.4241 13.7989C29.4241 15.338 29.129 16.6837 28.5379 17.8368C27.9469 18.9916 27.1402 19.8876 26.1177 20.5249C25.0952 21.1622 23.9363 21.4813 22.6418 21.4813C21.8351 21.4813 21.0142 21.2656 20.1794 20.8341C19.3445 20.4034 18.627 19.8496 18.0269 19.1734V27.8139H15.7191V6.98855H18.0269V9.38073C18.5146 8.631 19.1759 7.99784 20.0108 7.48121C20.8456 6.96542 21.7979 6.70668 22.8666 6.70668ZM22.5013 8.95833C21.6573 8.95833 20.8927 9.17491 20.2083 9.60556C19.5222 10.0379 18.9883 10.633 18.6039 11.3927C18.2187 12.1523 18.0269 13.0393 18.0269 14.0518L18.055 16.754C18.6551 17.4855 19.2833 18.0815 19.9405 18.5411C20.5968 19.0007 21.3565 19.2305 22.2202 19.2305C23.2328 19.2305 24.0958 18.9676 24.8092 18.4427C25.5217 17.917 26.0705 17.2375 26.4549 16.4019C26.8393 15.567 27.0319 14.6991 27.0319 13.7989C27.0319 12.8797 26.8442 12.0589 26.469 11.3365C26.0937 10.6148 25.5688 10.0379 24.8935 9.60556C24.2181 9.17491 23.4205 8.95833 22.5013 8.95833ZM39.02 6.70668C39.8268 6.70668 40.6476 6.90011 41.4825 7.28448C42.3173 7.66885 43.0348 8.1987 43.6349 8.87403V6.98855H45.9428V21.0597H43.6349V18.6676C43.1472 19.4181 42.486 20.0744 41.6511 20.6374C40.8162 21.2003 39.864 21.4813 38.7952 21.4813C37.5942 21.4813 36.4964 21.1763 35.502 20.5671C34.5076 19.9579 33.7158 19.1081 33.1247 18.0203C32.5337 16.9317 32.2378 15.6753 32.2378 14.2486C32.2378 12.6929 32.5337 11.3513 33.1247 10.2247C33.7158 9.09969 34.5267 8.23176 35.5591 7.62173C36.5898 7.01253 37.7438 6.70668 39.02 6.70668ZM39.4424 8.95833C38.429 8.95833 37.566 9.21211 36.8535 9.71882C36.1402 10.2247 35.5913 10.8769 35.2069 11.6745C34.8226 12.4722 34.63 13.3302 34.63 14.2486C34.63 15.1496 34.8176 15.9795 35.1929 16.7399C35.5682 17.4996 36.098 18.1038 36.7833 18.5543C37.4677 19.0048 38.2604 19.2305 39.1606 19.2305C40.0235 19.2305 40.7931 19.0048 41.4684 18.5543C42.1438 18.1038 42.6786 17.4814 43.0728 16.6837C43.4663 15.8861 43.6539 14.9908 43.6349 13.9965L43.6077 11.2943C43.0249 10.5619 42.4017 9.99076 41.7354 9.57746C41.07 9.16499 40.3046 8.95833 39.4424 8.95833ZM53.0342 6.98855V9.8023C53.5781 8.86494 54.2344 8.11355 55.004 7.55147C55.7727 6.98855 56.5613 6.70668 57.368 6.70668C57.9128 6.70668 58.4005 6.80092 58.8311 6.98855V9.66178C58.231 9.30634 57.6301 9.12697 57.03 9.12697C56.0736 9.12697 55.2999 9.46505 54.708 10.1404C54.1179 10.8157 53.5591 11.6225 53.0342 12.5607V21.0589H50.7263V6.98855H53.0342ZM74.2249 6.98855L67.6964 13.1236L74.5902 21.0589H71.6632L66.092 14.6429L64.0941 16.5002V21.0589H61.7862V0.797341H64.0941V13.8551L71.102 6.98855H74.2249ZM77.1229 0.796509H79.4308V21.0589H77.1229V0.796509ZM90.0129 6.70668C91.4569 6.70668 92.658 7.00757 93.6144 7.60768C94.5716 8.20862 95.2891 9.02446 95.7677 10.0561C96.2463 11.0877 96.4851 12.2507 96.4851 13.546V14.9247H85.679C85.7923 15.7125 86.0634 16.4349 86.4949 17.0912C86.9264 17.7484 87.4893 18.2691 88.1836 18.6535C88.8771 19.0379 89.6756 19.2305 90.5758 19.2305C91.5884 19.2305 92.5357 18.9726 93.4176 18.456C94.2996 17.9402 95.0402 17.3731 95.6412 16.754L95.6123 19.2586C95.3502 19.5777 94.9609 19.9108 94.4451 20.2571C93.9285 20.6051 93.3375 20.8952 92.672 21.13C92.0058 21.3639 91.3073 21.4813 90.5758 21.4813C89.1499 21.4813 87.8836 21.144 86.7767 20.4687C85.6691 19.7926 84.8012 18.8974 84.1738 17.7815C83.5448 16.6647 83.2306 15.4414 83.2306 14.1081C83.2306 12.7764 83.5208 11.5481 84.1035 10.4222C84.6846 9.29642 85.4864 8.39543 86.5098 7.7201C87.5314 7.0456 88.6994 6.70668 90.0129 6.70668ZM90.0129 8.95833C88.8499 8.95833 87.8927 9.3485 87.1421 10.1263C86.3915 10.905 85.9229 11.8481 85.7352 12.9549H94.2054C94.112 12.0358 93.8541 11.2844 93.4325 10.7033C93.0101 10.1222 92.4985 9.68574 91.8983 9.39478C91.2982 9.10464 90.6692 8.95833 90.0129 8.95833ZM106.644 6.70668C108.07 6.70668 109.336 7.0456 110.443 7.7201C111.551 8.39543 112.417 9.29642 113.046 10.4222C113.675 11.5481 113.989 12.7764 113.989 14.1081C113.989 15.4414 113.675 16.6647 113.046 17.7815C112.417 18.8974 111.551 19.7926 110.443 20.4687C109.336 21.144 108.07 21.4813 106.644 21.4813C105.218 21.4813 103.952 21.144 102.845 20.4687C101.737 19.7926 100.87 18.8974 100.242 17.7815C99.613 16.6647 99.2989 15.4414 99.2989 14.1081C99.2989 12.7764 99.613 11.5481 100.242 10.4222C100.87 9.29642 101.737 8.39543 102.845 7.7201C103.952 7.0456 105.218 6.70668 106.644 6.70668ZM106.644 8.95833C105.65 8.95833 104.777 9.19806 104.027 9.67583C103.276 10.1544 102.7 10.7835 102.296 11.5613C101.893 12.3408 101.691 13.1897 101.691 14.1081C101.691 15.009 101.893 15.8489 102.296 16.6267C102.7 17.4062 103.276 18.0336 104.027 18.513C104.777 18.9916 105.65 19.2305 106.644 19.2305C107.657 19.2305 108.534 18.9916 109.276 18.513C110.017 18.0336 110.588 17.4062 110.992 16.6267C111.395 15.8489 111.597 15.009 111.597 14.1081C111.597 13.1897 111.395 12.3408 110.992 11.5613C110.588 10.7835 110.017 10.1544 109.276 9.67583C108.534 9.19806 107.657 8.95833 106.644 8.95833Z" fill="white"/>
</svg>
